name analog
datacolumns 19
datarows 41
range 0.0 0.02
endheader
time	ground_force_vx	ground_force_vy	ground_force_vz	ground_force_px	ground_force_py	ground_force_pz	l_ground_force_vx	l_ground_force_vy	l_ground_force_vz	l_ground_force_px	l_ground_force_py	l_ground_force_pz	ground_torque_x	ground_torque_y	ground_torque_z	l_ground_torque_x	l_ground_torque_y	l_ground_torque_z
0.0	-0.0	-0.0	-0.0	1.807339310646057	78.58866882324219	-581.3799438476562	-1.0835731029510498	-18.452911376953125	-195.23789978027344	-0.0	-0.0	-0.0	-0.0	-0.0	-0.0	55147.078125	2561.7392578125	-859.3468017578125
0.0005	-0.0	-0.0	-0.0	2.3725333213806152	81.0669174194336	-598.5415649414062	0.940767765045166	-14.677769660949709	-175.17645263671875	-0.0	-0.0	-0.0	-0.0	-0.0	-0.0	49343.62890625	2020.2662353515625	-329.363525390625
0.001	-0.0	-0.0	-0.0	2.9857823848724365	83.07506561279297	-616.055419921875	2.395191192626953	-11.221498489379885	-155.13780212402344	-0.0	-0.0	-0.0	-0.0	-0.0	-0.0	44010.82421875	1889.9317626953125	224.3962860107422
0.0015	-0.0	-0.0	-0.0	3.075059413909912	84.76301574707031	-632.6897583007812	4.476907253265381	-7.777806282043457	-138.70545959472656	-0.0	-0.0	-0.0	-0.0	-0.0	-0.0	39109.08203125	1333.8031005859375	808.1307373046875
0.002	-0.0	-0.0	-0.0	3.1854262351989746	86.41455841064453	-647.6076049804688	6.481728076934815	-4.586912631988525	-120.3653564453125	-0.0	-0.0	-0.0	-0.0	-0.0	-0.0	34329.37890625	959.2171020507812	1534.0723876953125
0.0025	-0.0	-0.0	-0.0	3.589120388031006	87.4789047241211	-660.840576171875	8.53921127319336	-1.41314697265625	-105.93360137939452	-0.0	-0.0	-0.0	-0.0	-0.0	-0.0	30310.49609375	669.8396606445312	2145.366455078125
0.003	-0.0	-0.0	-0.0	4.155832767486572	88.98916625976562	-675.4268188476562	10.52062702178955	1.6478877067565918	-91.7607650756836	-0.0	-0.0	-0.0	-0.0	-0.0	-0.0	26104.431640625	395.9434509277344	2618.336181640625
0.0035	-0.0	-0.0	-0.0	4.024335861206055	89.91511535644531	-686.7485961914062	12.169883728027344	4.38014030456543	-79.37785339355469	-0.0	-0.0	-0.0	-0.0	-0.0	-0.0	22872.9140625	135.05738830566406	3241.30810546875
0.004	-0.0	-0.0	-0.0	4.009662628173828	90.76838684082033	-697.5875244140625	13.990782737731934	6.842251777648926	-67.46553039550781	-0.0	-0.0	-0.0	-0.0	-0.0	-0.0	19505.78515625	79.49447631835938	3779.021240234375
0.0045000000000000005	-0.0	-0.0	-0.0	4.122341632843018	91.9965591430664	-707.2705078125	15.299992561340332	9.09713363647461	-57.24025344848633	-0.0	-0.0	-0.0	-0.0	-0.0	-0.0	16267.1796875	-217.33876037597656	4148.69873046875
0.005	-0.0	-0.0	-0.0	3.67590069770813	92.63508605957033	-715.50634765625	16.406354904174805	11.08693027496338	-46.91031646728516	-0.0	-0.0	-0.0	-0.0	-0.0	-0.0	13878.0576171875	-422.2138977050781	4492.03515625
0.0055	-0.0	-0.0	-0.0	3.559551477432251	93.50665283203124	-724.2393188476562	17.079330444335938	12.453357696533203	-38.71641159057617	-0.0	-0.0	-0.0	-0.0	-0.0	-0.0	11350.3115234375	-530.7844848632812	4731.89208984375
0.006	-0.0	-0.0	-0.0	3.470609188079834	94.04976654052734	-728.4251708984375	17.256685256958008	13.439455032348633	-30.357006072998047	-0.0	-0.0	-0.0	-0.0	-0.0	-0.0	9441.458984375	-471.2773742675781	4721.51123046875
0.006500000000000001	-0.0	-0.0	-0.0	3.619330406188965	94.43576049804688	-733.3864135742188	16.79397201538086	13.736400604248049	-24.97374153137207	-0.0	-0.0	-0.0	-0.0	-0.0	-0.0	7437.2119140625	-372.3291931152344	4538.400390625
0.007	-0.0	-0.0	-0.0	3.708322286605835	95.19126892089844	-737.6082153320312	-0.0	-0.0	-0.0	-0.0	-0.0	-0.0	-0.0	-0.0	-0.0	-0.0	-0.0	-0.0
0.0075	-0.0	-0.0	-0.0	3.331535577774048	95.67160034179688	-740.9871826171875	-0.0	-0.0	-0.0	-0.0	-0.0	-0.0	-0.0	-0.0	-0.0	-0.0	-0.0	-0.0
0.008	-0.0	-0.0	-0.0	3.4015140533447266	95.86166381835938	-743.458984375	-0.0	-0.0	-0.0	-0.0	-0.0	-0.0	-0.0	-0.0	-0.0	-0.0	-0.0	-0.0
0.0085	-0.0	-0.0	-0.0	3.436450958251953	95.95072174072266	-743.2744750976562	-0.0	-0.0	-0.0	-0.0	-0.0	-0.0	-0.0	-0.0	-0.0	-0.0	-0.0	-0.0
0.009000000000000001	-0.0	-0.0	-0.0	3.5720157623291016	96.2144775390625	-743.2742919921875	-0.0	-0.0	-0.0	-0.0	-0.0	-0.0	-0.0	-0.0	-0.0	-0.0	-0.0	-0.0
0.0095	-0.0	-0.0	-0.0	3.664555311203003	96.21453857421876	-741.467041015625	-0.0	-0.0	-0.0	-0.0	-0.0	-0.0	-0.0	-0.0	-0.0	-0.0	-0.0	-0.0
0.01	-0.0	-0.0	-0.0	3.5188231468200684	96.07592010498048	-738.7997436523438	-0.0	-0.0	-0.0	-0.0	-0.0	-0.0	-0.0	-0.0	-0.0	-0.0	-0.0	-0.0
0.0105	-0.0	-0.0	-0.0	3.6211025714874263	95.67341613769533	-733.8695068359375	-0.0	-0.0	-0.0	-0.0	-0.0	-0.0	-0.0	-0.0	-0.0	-0.0	-0.0	-0.0
0.011	-0.0	-0.0	-0.0	3.1992380619049072	94.9638214111328	-732.32470703125	-0.0	-0.0	-0.0	-0.0	-0.0	-0.0	-0.0	-0.0	-0.0	-0.0	-0.0	-0.0
0.0115	-0.0	-0.0	-0.0	3.488173484802246	94.91193389892578	-726.4910888671875	-0.0	-0.0	-0.0	-0.0	-0.0	-0.0	-0.0	-0.0	-0.0	-0.0	-0.0	-0.0
0.012	-0.0	-0.0	-0.0	2.9439468383789062	94.9210205078125	-719.95166015625	-0.0	-0.0	-0.0	-0.0	-0.0	-0.0	-0.0	-0.0	-0.0	-0.0	-0.0	-0.0
0.0125	-0.0	-0.0	-0.0	2.5952670574188232	94.56464385986328	-714.814697265625	-0.0	-0.0	-0.0	-0.0	-0.0	-0.0	-0.0	-0.0	-0.0	-0.0	-0.0	-0.0
0.013000000000000001	-0.0	-0.0	-0.0	2.39556622505188	93.75469970703124	-708.598388671875	-0.0	-0.0	-0.0	-0.0	-0.0	-0.0	-0.0	-0.0	-0.0	-0.0	-0.0	-0.0
0.0135	-0.0	-0.0	-0.0	2.5128345489501958	93.45198059082033	-701.9500732421875	8.719573974609375	5.345870971679688	-11.01816177368164	-0.0	-0.0	-0.0	-0.0	-0.0	-0.0	2956.716064453125	214.10780334472656	2708.45751953125
0.014	-0.0	-0.0	-0.0	3.0331573486328125	92.77532958984376	-694.8768920898438	11.729182243347168	7.495631694793701	-22.87521743774414	-0.0	-0.0	-0.0	-0.0	-0.0	-0.0	6802.0380859375	860.8802490234375	3475.0380859375
0.0145	-0.0	-0.0	-0.0	3.829277276992798	92.43048858642578	-689.0540771484375	5.48016357421875	4.891944408416748	-27.582977294921875	-0.0	-0.0	-0.0	-0.0	-0.0	-0.0	8197.1923828125	1178.89013671875	1487.39111328125
0.015	-0.0	-0.0	-0.0	4.0580220222473145	92.38894653320312	-685.8587036132812	0.6988914012908936	2.5586419105529785	-36.83018493652344	-0.0	-0.0	-0.0	-0.0	-0.0	-0.0	10353.451171875	1361.2999267578125	-89.65001678466797
0.0155	-0.0	-0.0	-0.0	4.242536067962647	91.67162322998048	-681.276123046875	-2.44605040550232	0.1260072588920593	-44.35249328613281	-0.0	-0.0	-0.0	-0.0	-0.0	-0.0	12437.736328125	1714.4051513671875	-1217.933349609375
0.016	-0.0	-0.0	-0.0	4.020153045654297	90.86750030517578	-678.6389770507812	-5.545664310455322	-1.6830519437789917	-50.09837341308594	-0.0	-0.0	-0.0	-0.0	-0.0	-0.0	14293.9892578125	2004.689453125	-2140.182373046875
0.0165	-0.0	-0.0	-0.0	3.652387857437134	90.37823486328124	-674.3936157226562	-7.499565124511719	-2.522982358932495	-56.732540130615234	-0.0	-0.0	-0.0	-0.0	-0.0	-0.0	16222.0263671875	2244.25439453125	-2646.855224609375
0.017	-0.0	-0.0	-0.0	2.8514370918273926	89.93587493896484	-670.1622314453125	-7.360756874084473	-3.2226271629333496	-63.36661148071289	-0.0	-0.0	-0.0	-0.0	-0.0	-0.0	18283.119140625	2544.57177734375	-2675.068603515625
0.0175	-0.0	-0.0	-0.0	2.14105224609375	89.44007110595703	-666.4384155273438	-5.679595947265625	-3.5759799480438232	-70.6741943359375	-0.0	-0.0	-0.0	-0.0	-0.0	-0.0	20582.849609375	2787.021484375	-2062.7255859375
0.018000000000000002	-0.0	-0.0	-0.0	1.203638792037964	89.26058959960938	-659.7401123046875	-3.8086459636688232	-3.799796342849731	-79.6220932006836	-0.0	-0.0	-0.0	-0.0	-0.0	-0.0	22681.763671875	2864.310546875	-1500.7183837890625
0.0185	-0.0	-0.0	-0.0	0.6697211861610413	88.68475341796875	-653.0347900390625	-2.129058837890625	-4.906521797180176	-88.52838897705078	-0.0	-0.0	-0.0	-0.0	-0.0	-0.0	25156.71875	2928.48388671875	-995.5650024414062
0.019	-0.0	-0.0	-0.0	-0.1366633772850036	88.19851684570312	-648.2550048828125	-1.4176418781280518	-6.31586217880249	-99.72025299072266	-0.0	-0.0	-0.0	-0.0	-0.0	-0.0	28480.025390625	2941.1064453125	-758.756103515625
0.0195	-0.0	-0.0	-0.0	-0.71368408203125	87.79241180419922	-642.779296875	-0.7064188718795776	-7.683986663818359	-113.11869049072266	-0.0	-0.0	-0.0	-0.0	-0.0	-0.0	32725.361328125	2638.113525390625	-700.3785400390625
0.02	-0.0	-0.0	-0.0	-1.2029614448547363	87.21732330322266	-633.7722778320312	-0.6194623708724976	-9.893535614013672	-129.36959838867188	-0.0	-0.0	-0.0	-0.0	-0.0	-0.0	37182.3828125	2527.609619140625	-684.720458984375
